<?xml version="1.0" encoding="utf-8"?>
<!-- Generator: Adobe Illustrator 26.0.1, SVG Export Plug-In . SVG Version: 6.00 Build 0)  -->
<svg version="1.1" xmlns="http://www.w3.org/2000/svg" xmlns:xlink="http://www.w3.org/1999/xlink" x="0px" y="0px"
	 viewBox="0 0 792 792" style="enable-background:new 0 0 792 792;" xml:space="preserve">
<style type="text/css">
	.st0{fill:none;}
	.st1{fill:#FFFFFF;stroke:#FFFFFF;stroke-miterlimit:10;}
	.st2{fill:#FFFFFF;}
</style>
<g id="Backgorund">
	<rect class="st0" width="792" height="792"/>
</g>
<g id="Layer_5">
	<g>
		<path class="st1" d="M353.75,531.89l-38.84,41.25l-4.68,18.67l0.11-0.01l-0.04,0.06l14,9.21l63.92-46.17
			C375.65,548.98,364.03,541.21,353.75,531.89z"/>
		<path class="st1" d="M314.79,472.02c-1.68-5.09-3.08-10.34-4.18-15.71l-15.31,15.82L314.79,472.02z"/>
		<path class="st1" d="M587.28,410.53c0.02,0.19,0.05,0.38,0.07,0.57l0.79-0.57L587.28,410.53z"/>
		<path class="st1" d="M622.81,455.47l38.78-17.1l-3.92-49.85l-0.07,0.01l0.06-0.1l-40.19-10.61
			c-4.87-16.53-12.03-31.91-21.07-45.86l0.39,0.43l18.18-38.28l-3.58-3.54l-54.28,49.04c14.53,17.91,24.83,39.64,29.11,63.91
			l23.64-0.05l-21.75,15.71c4.55,71.21-45.63,135.59-117.53,147.29c-26.23,4.27-51.95,0.97-74.92-8.3l-65.11,47.02l21.51,14.16
			l33.69-25.71l-1.69-0.99c16.87,6.57,34.89,10.6,53.5,11.69l19.7,36.23l49.35-8.03l-0.01-0.07l0.1,0.05l7.2-40.61
			c17.23-6.9,32.97-16.38,46.84-27.89l-0.79,0.9l40.11,13.68l30.87-39.33l-0.05-0.04l0.11-0.03l-22.82-35.71l-1.3,1.84
			c7.79-15.95,13.21-33.14,15.9-51.06L622.81,455.47z"/>
		<path class="st1" d="M579.43,258.96l-0.05,0.05l-0.02-0.11l-38.09,18.59l1.64,1.47c-12.95-8.25-26.99-14.83-41.78-19.5
			l-29.23,30.2c31.36,5.41,59.75,21.37,80.65,44.65l53.85-48.64L579.43,258.96z"/>
		<path class="st1" d="M221.05,458.58l15.78,0.44l2.53,9.58l-26.87,7.51l2.69,12.26l12.49-2.38l2.33,8.33l15.58-2.17l3.59,13.61
			l41.88,3.3c8.21,15.9,18.7,30.27,31,42.76l-1.53-1.13l-2.14,8.53l30.29-32.17c-13.44-13.45-24.24-29.72-31.38-48.06l-38.61,0.23
			l30.44-31.45c-10.8-75.48,40.79-146.04,116.38-158.34c12.82-2.09,25.52-2.36,37.83-1.01l30.21-31.21
			c-0.22-0.06-0.44-0.12-0.66-0.18l-12.92-39.72l-0.09,0.06l0-0.07l-11.36-0.25V201.5H441v11.62l-13.51,1.06l-8.99-49.68l-22.5,4
			l3.5,20l-9.99,2.29L396,224.5l-10,3.5l-42.5-78l-7.88,3.46l-12.55-26.72l-2.96,0.56l12.91,27.31l-7.19,3.16l-13.7-26.94l-2.25,2
			l13.35,26.08L315,162.5l26.01,71.74L319,210l-16,11.5l6,9l-6,6.42l-9.5-8.42l-4.5,5l-19.04-14.96L259.5,229l-23.11-15.5l-10.89,15
			l65.92,55l-4.42,7l-41.75-21.08l-19.75,4.08l5.5,20.32l47,22.68l-2,5l-17-6l-5.5,12.5l-56.25-16.25l-7.25,25l38.22,15.19L227,362
			l44.35,12.5l-1.64,7.33l-113.77-4.6l-1.87,10.08L103,387.62v7.85l-43.25-1.91l-0.88,2.88l44.13,1.84v7.31l-34.75-0.43l0.73,2.92
			l34.02,0.34V421l67,1.5l1,11.1l46.56,2.57L221.05,458.58z"/>
	</g>
	<polygon class="st2" points="530.3,224.29 287,475.69 402.51,475 185,706 599,407 477,407.27 693.08,212.08 	"/>
</g>
</svg>
